<?xml version="1.0" standalone="no"?>
<!DOCTYPE svg PUBLIC "-//W3C//DTD SVG 20010904//EN"
 "http://www.w3.org/TR/2001/REC-SVG-20010904/DTD/svg10.dtd">
<svg version="1.0" xmlns="http://www.w3.org/2000/svg"
 width="192.000000pt" height="192.000000pt" viewBox="0 0 192.000000 192.000000"
 preserveAspectRatio="xMidYMid meet">
<metadata>
Created by potrace 1.11, written by Peter Selinger 2001-2013
</metadata>
<g transform="translate(0.000000,192.000000) scale(0.100000,-0.100000)"
fill="#000000" stroke="none">
<path d="M0 960 l0 -960 960 0 960 0 0 960 0 960 -960 0 -960 0 0 -960z m1115
450 c0 -25 0 -25 -110 -28 -152 -4 -145 6 -145 -203 l0 -168 98 -3 c96 -3 97
-3 97 -28 0 -25 -1 -25 -97 -28 l-98 -3 0 -225 c0 -191 -2 -225 -15 -230 -8
-4 -22 -1 -30 6 -23 19 -22 837 0 880 26 50 56 60 185 57 l115 -2 0 -25z
m-575 -470 c0 -19 -7 -20 -150 -20 -143 0 -150 1 -150 20 0 19 7 20 150 20
143 0 150 -1 150 -20z m1140 0 c0 -19 -7 -20 -150 -20 -143 0 -150 1 -150 20
0 19 7 20 150 20 143 0 150 -1 150 -20z m-1140 -50 c0 -6 -57 -10 -150 -10
-93 0 -150 4 -150 10 0 6 57 10 150 10 93 0 150 -4 150 -10z m1140 0 c0 -6
-57 -10 -150 -10 -93 0 -150 4 -150 10 0 6 57 10 150 10 93 0 150 -4 150 -10z
m-1140 -40 c0 -19 -7 -20 -150 -20 -143 0 -150 1 -150 20 0 19 7 20 150 20
143 0 150 -1 150 -20z m1140 0 c0 -19 -7 -20 -150 -20 -143 0 -150 1 -150 20
0 19 7 20 150 20 143 0 150 -1 150 -20z"/>
</g>
</svg>
